# xmcd CD database file
#
# Track frame offsets:
#	150
#	20661
#	30723
#	43849
#
# Disc length: 854 seconds
#
# Revision: 0
# Processed by: cddbd v1.5.1PL0 Copyright (c) Steve Scherf et al.
# Submitted via: CDex 1.51
#
DISCID=2e035404
DTITLE=Blueberry&Yogurt - しあわせのみつけかた How to find a happiness
DYEAR=2004
DGENRE=JPop
TTITLE0=しあわせのみつけかた
TTITLE1=しあわせのみつけかた (TG.ver)
TTITLE2=しあわせのみつけかた (Vossa.ver)
TTITLE3=SHIAWASW (Enhanced CD)
EXTD=YEAR: 2004
EXTT0=
EXTT1=
EXTT2=
EXTT3=
PLAYORDER=
